<svg width="19" height="21" viewBox="0 0 19 21" fill="none" xmlns="http://www.w3.org/2000/svg">
<g clip-path="url(#clip0)">
<path d="M16.5659 2.0237H15.6863V0.490479H14.2203V2.0237H4.54462V0.490479H3.07861V2.0237H2.19901C0.986475 2.0237 0 3.0554 0 4.32353V17.8159C0 19.084 0.986475 20.1157 2.19901 20.1157H16.5659C17.7784 20.1157 18.7649 19.084 18.7649 17.8159V4.32353C18.7649 3.0554 17.7784 2.0237 16.5659 2.0237ZM17.2989 17.8159C17.2989 18.2386 16.97 18.5825 16.5659 18.5825H2.19901C1.79483 18.5825 1.46601 18.2386 1.46601 17.8159V7.69661H17.2989V17.8159ZM17.2989 6.16339H1.46601V4.32353C1.46601 3.90082 1.79483 3.55692 2.19901 3.55692H3.07861V5.09014H4.54462V3.55692H14.2203V5.09014H15.6863V3.55692H16.5659C16.97 3.55692 17.2989 3.90082 17.2989 4.32353V6.16339Z" fill="#787878"/>
<path d="M4.25116 9.30649H2.78516V10.8397H4.25116V9.30649Z" fill="#787878"/>
<path d="M7.18378 9.30649H5.71777V10.8397H7.18378V9.30649Z" fill="#787878"/>
<path d="M10.1154 9.30649H8.64941V10.8397H10.1154V9.30649Z" fill="#787878"/>
<path d="M13.0471 9.30649H11.5811V10.8397H13.0471V9.30649Z" fill="#787878"/>
<path d="M15.9797 9.30649H14.5137V10.8397H15.9797V9.30649Z" fill="#787878"/>
<path d="M4.25116 12.373H2.78516V13.9062H4.25116V12.373Z" fill="#787878"/>
<path d="M7.18378 12.373H5.71777V13.9062H7.18378V12.373Z" fill="#787878"/>
<path d="M10.1154 12.373H8.64941V13.9062H10.1154V12.373Z" fill="#787878"/>
<path d="M13.0471 12.373H11.5811V13.9062H13.0471V12.373Z" fill="#787878"/>
<path d="M4.25116 15.4394H2.78516V16.9726H4.25116V15.4394Z" fill="#787878"/>
<path d="M7.18378 15.4394H5.71777V16.9726H7.18378V15.4394Z" fill="#787878"/>
<path d="M10.1154 15.4394H8.64941V16.9726H10.1154V15.4394Z" fill="#787878"/>
<path d="M13.0471 15.4394H11.5811V16.9726H13.0471V15.4394Z" fill="#787878"/>
<path d="M15.9797 12.373H14.5137V13.9062H15.9797V12.373Z" fill="#787878"/>
</g>
<defs>
<clipPath id="clip0">
<rect width="18.7649" height="19.6252" fill="white" transform="translate(0 0.490479)"/>
</clipPath>
</defs>
</svg>
