<svg width="23" height="23" viewBox="0 0 23 23" fill="none" xmlns="http://www.w3.org/2000/svg">
<path d="M10.6128 3.99765H4.40993C3.93991 3.99765 3.48913 4.19293 3.15677 4.54053C2.82441 4.88812 2.6377 5.35957 2.6377 5.85114V18.8256C2.6377 19.3172 2.82441 19.7886 3.15677 20.1362C3.48913 20.4838 3.93991 20.6791 4.40993 20.6791H16.8156C17.2856 20.6791 17.7364 20.4838 18.0688 20.1362C18.4011 19.7886 18.5878 19.3172 18.5878 18.8256V12.3384" stroke="#787878" stroke-linecap="round" stroke-linejoin="round"/>
<path d="M17.2583 2.60745C17.6109 2.23877 18.089 2.03165 18.5875 2.03165C19.0861 2.03165 19.5642 2.23877 19.9167 2.60745C20.2692 2.97614 20.4673 3.47618 20.4673 3.99757C20.4673 4.51897 20.2692 5.01901 19.9167 5.38769L11.4986 14.1918L7.9541 15.1185L8.84022 11.4115L17.2583 2.60745Z" stroke="#787878" stroke-linecap="round" stroke-linejoin="round"/>
</svg>
