<svg width="29" height="29" viewBox="0 0 29 29" fill="none" xmlns="http://www.w3.org/2000/svg">
<g clip-path="url(#clip0)">
<path d="M28.9774 13.6518C28.7773 10.1425 27.285 6.8186 24.7754 4.29244C22.2655 1.76593 18.9516 0.252269 15.4441 0.0303516C13.3117 -0.104623 11.234 0.212847 9.26874 0.973699C7.37955 1.70499 5.69177 2.8054 4.25203 4.24429C2.81223 5.68325 1.71091 7.3704 0.978376 9.25919C0.216334 11.224 -0.102269 13.3015 0.0313464 15.4336C0.250658 18.9332 1.75667 22.2426 4.2718 24.7521C6.78669 27.2613 10.0995 28.7602 13.5999 28.9726C13.9026 28.9909 14.2043 29.0001 14.5052 29.0001C16.0315 29.0001 17.5313 28.764 18.9751 28.2956C20.1488 27.9148 21.0872 27.03 21.5498 25.8679C21.9997 24.7379 21.9549 23.486 21.4329 22.3981C21.4338 22.3972 21.4346 22.3965 21.4355 22.3957L22.6723 21.1588C22.9954 20.8357 23.1463 20.3906 23.0865 19.9377C23.0266 19.4848 22.7651 19.0942 22.3692 18.8663L18.2017 16.4669C17.632 16.1389 16.9097 16.2344 16.4447 16.6993L15.3664 17.7776C15.1905 17.9536 14.911 17.9677 14.7163 17.8106C14.0829 17.2993 13.459 16.7373 12.8619 16.1401C12.2648 15.5431 11.7028 14.9191 11.1914 14.2856C11.0343 14.091 11.0484 13.8115 11.2243 13.6356L12.3027 12.5571C12.7675 12.0923 12.8631 11.3699 12.5351 10.8003L10.1357 6.63277C9.90775 6.23685 9.51722 5.9754 9.06426 5.91547C8.61137 5.85543 8.16629 6.00649 7.84315 6.32957L6.60629 7.56649C5.6967 8.47596 5.67127 10.1138 6.53458 12.1783C7.34783 14.1231 8.86325 16.2617 10.8018 18.2001C12.7402 20.1385 14.8788 21.6539 16.8236 22.4672C17.8276 22.8871 18.7306 23.0968 19.4981 23.0968C19.9543 23.0968 20.3626 23.0227 20.7157 22.8746C21.0872 23.7227 21.1071 24.683 20.7604 25.5536C20.3916 26.4801 19.6453 27.1849 18.7129 27.4874C17.0861 28.0151 15.3833 28.2296 13.6513 28.1244C10.3579 27.9246 7.23999 26.5133 4.87179 24.1505C2.50348 21.7876 1.08554 18.673 0.879198 15.3803C0.753286 13.3717 1.05314 11.4156 1.77038 9.56618C2.45987 7.78829 3.49684 6.19992 4.85247 4.84502C6.20811 3.49018 7.79705 2.45423 9.57533 1.76582C11.4251 1.04965 13.3816 0.751102 15.3903 0.878034C18.6903 1.08687 21.8092 2.51206 24.1726 4.89101C26.5357 7.2698 27.9408 10.3982 28.1291 13.7C28.2657 16.0967 27.7761 18.4846 26.7134 20.6055C26.6083 20.8153 26.6931 21.0705 26.9029 21.1756C27.1128 21.2809 27.3679 21.1959 27.4729 20.9862C28.6022 18.7328 29.1224 16.1965 28.9774 13.6518ZM20.8348 21.7949C20.1945 22.4352 18.8519 22.3946 17.1515 21.6835C15.3063 20.9119 13.2647 19.4615 11.4027 17.5994C9.54055 15.7373 8.09016 13.6957 7.31855 11.8505C6.60742 10.1501 6.56681 8.80759 7.20713 8.16733L7.75054 7.62386L7.91123 7.90299C7.98985 8.03955 8.13275 8.1159 8.27979 8.1159C8.35173 8.1159 8.42462 8.0976 8.49135 8.0592C8.69468 7.94213 8.76458 7.68243 8.64756 7.47909L8.37268 7.00167L8.44399 6.93036C8.5592 6.81509 8.71173 6.75245 8.87169 6.75245C8.89859 6.75245 8.92566 6.7542 8.95291 6.75783C9.14163 6.78281 9.30442 6.89173 9.39941 7.05678L11.7989 11.2243C11.9356 11.4617 11.8958 11.7628 11.702 11.9565L11.3996 12.2589L9.59357 9.122C9.47649 8.91866 9.21674 8.84877 9.01346 8.96585C8.81012 9.08287 8.74022 9.34262 8.85724 9.54596L10.7774 12.8811L10.6236 13.0349C10.1398 13.5187 10.0998 14.2859 10.5303 14.8194C11.0606 15.4762 11.643 16.1227 12.2612 16.7409C12.8796 17.3592 13.5261 17.9416 14.1828 18.4717C14.7162 18.9024 15.4833 18.8623 15.9672 18.3785L16.0634 18.2822L16.8008 18.7031C16.8672 18.741 16.9396 18.759 17.011 18.759C17.1585 18.759 17.3019 18.6821 17.3803 18.5447C17.4967 18.341 17.4258 18.0815 17.222 17.9652L16.6863 17.6595L17.0457 17.3001C17.2394 17.1064 17.5405 17.0667 17.7778 17.2032L21.9453 19.6027C22.1104 19.6977 22.2193 19.8604 22.2443 20.0492C22.2692 20.238 22.2063 20.4234 22.0716 20.5581L21.9603 20.6694L18.7986 18.8649C18.5948 18.7486 18.3353 18.8195 18.2191 19.0233C18.1027 19.2271 18.1736 19.4865 18.3774 19.6028L21.3376 21.2922L20.8348 21.7949Z" fill="#003D92"/>
</g>
<defs>
<clipPath id="clip0">
<rect width="29" height="29" fill="white"/>
</clipPath>
</defs>
</svg>
